HIERARCHY
ROOT Hips
{
	OFFSET 0.00000 0.00000 0.00000
	CHANNELS 6 Xposition Yposition Zposition Zrotation Yrotation Xrotation 
	JOINT LHipJoint
	{
		OFFSET 0 0 0
		CHANNELS 3 Zrotation Yrotation Xrotation
		JOINT LeftHip
		{
			OFFSET 1.58895 -1.83665 0.71753
			CHANNELS 3 Zrotation Yrotation Xrotation
			JOINT LeftKnee
			{
				OFFSET 2.50528 -6.88321 0.00000
				CHANNELS 3 Zrotation Yrotation Xrotation
				JOINT LeftAnkle
				{
					OFFSET 2.63244 -7.23257 0.00000
					CHANNELS 3 Zrotation Yrotation Xrotation
					JOINT LeftToe
					{
						OFFSET 0.23691 -0.65090 1.72750
						CHANNELS 3 Zrotation Yrotation Xrotation
						End Site
						{
							OFFSET 0.00000 -0.00000 0.92561
						}
					}
				}
			}
		}
	}
	JOINT RHipJoint
	{
		OFFSET 0 0 0
		CHANNELS 3 Zrotation Yrotation Xrotation
		JOINT RightHip
		{
			OFFSET -1.51435 -1.83665 0.71753
			CHANNELS 3 Zrotation Yrotation Xrotation
			JOINT RightKnee
			{
				OFFSET -2.54551 -6.99375 0.00000
				CHANNELS 3 Zrotation Yrotation Xrotation
				JOINT RightAnkle
				{
					OFFSET -2.66027 -7.30903 0.00000
					CHANNELS 3 Zrotation Yrotation Xrotation
					JOINT RightToe
					{
						OFFSET -0.22981 -0.63138 2.03959
						CHANNELS 3 Zrotation Yrotation Xrotation
						End Site
						{
							OFFSET -0.00000 -0.00000 1.07060
						}
					}
				}
			}
		}
	}
	JOINT lowerback
	{
		OFFSET 0 0 0
		CHANNELS 3 Zrotation Yrotation Xrotation
		JOINT Chest
		{
			OFFSET -0.02651 1.86275 -0.11152
			CHANNELS 3 Zrotation Yrotation Xrotation
			JOINT Chest2
			{
				OFFSET 0.01019 1.86224 0.04087
				CHANNELS 3 Zrotation Yrotation Xrotation
				JOINT lowerneck
				{
					OFFSET 0 0 0
					CHANNELS 3 Zrotation Yrotation Xrotation
					JOINT Neck
					{
						OFFSET -0.01926 1.80512 0.08867
						CHANNELS 3 Zrotation Yrotation Xrotation
						JOINT Head
						{
							OFFSET 0.05516 1.76451 -0.38475
							CHANNELS 3 Zrotation Yrotation Xrotation
							End Site
							{
								OFFSET 0.01592 1.82587 -0.14001
							}
						}
					}
				}
				JOINT LeftCollar
				{
					OFFSET 0 0 0
					CHANNELS 3 Zrotation Yrotation Xrotation
					JOINT LeftShoulder
					{
						OFFSET 3.47116 1.51376 0.14491
CHANNELS 3 Zrotation Xrotation Yrotation
						JOINT LeftElbow
						{
OFFSET 0 -4.780950 0.000000
CHANNELS 3 Zrotation Xrotation Yrotation
							JOINT LeftWrist
							{
OFFSET 0 -3.586150 -0.000000
CHANNELS 3 Zrotation Xrotation Yrotation
								JOINT lhand
								{
									OFFSET 0 0 0
CHANNELS 3 Zrotation Xrotation Yrotation
									JOINT LFingers
									{
OFFSET 0 -0.659810 0.000000
CHANNELS 3 Zrotation Xrotation Yrotation
										End Site
										{
OFFSET 0 -0.531960 0.000000
										}
									}
								}
								JOINT LThumb
								{
OFFSET 0 0.000000 0.000000
CHANNELS 3 Zrotation Xrotation Yrotation
									End Site
									{
OFFSET 0 -0.540080 0.540080
									}
								}
							}
						}
					}
				}
				JOINT RightCollar
				{
					OFFSET 0 0 0
					CHANNELS 3 Zrotation Yrotation Xrotation
					JOINT RightShoulder
					{
						OFFSET -3.31725 1.61216 0.35156
CHANNELS 3 Zrotation Xrotation Yrotation
						JOINT RightElbow
						{
OFFSET 0 -4.489130 0.000000
CHANNELS 3 Zrotation Xrotation Yrotation
							JOINT RightWrist
							{
OFFSET 0 -3.705100 0.000000
CHANNELS 3 Zrotation Xrotation Yrotation
								JOINT rhand
								{
									OFFSET 0 0 0
CHANNELS 3 Zrotation Xrotation Yrotation
									JOINT RFingers
									{
OFFSET 0 -0.449140 0.000000
CHANNELS 3 Zrotation Xrotation Yrotation
										End Site
										{
OFFSET 0 -0.362110 0.000000
										}
									}
								}
								JOINT RThumb
								{
OFFSET 0 0.000000 0.000000
CHANNELS 3 Zrotation Xrotation Yrotation
									End Site
									{
OFFSET 0 -0.367630 0.367630
									}
								}
							}
						}
					}
				}
			}
		}
	}
}
MOTION
Frames: 8
Frame Time: 0.008333333333333333
-1.126700 18.102300 5.787300 -4.947400 -1.740100 -1.369100 0.000000 0.000000 0.000000 -11.437400 -1.844800 21.951900 1.094000 -6.646900 -18.673300 -1.100900 18.730900 -11.898300 0.116600 -2.201200 -6.062000 0.000000 0.000000 0.000000 24.228600 10.806200 16.025900 0.000000 -0.000000 0.000000 -2.201000 -10.654800 -33.476200 -0.155200 -2.538800 6.997200 2.693100 1.276200 2.182100 0.806800 1.796800 -0.736100 -0.748500 0.869200 -1.921600 -0.564500 -2.444700 -12.715700 1.508700 -3.535000 17.362200 0.228200 -1.586900 7.471400 -0.000000 -0.000000 0.000000 -3.056600 10.289600 -18.752600 20.012400 -30.657200 5.537700 4.301300 8.340700 26.849900 0.000000 0.000000 0.000000 -7.125000 0.000000 0.000000 -15.335200 3.867700 -14.816400 -0.000000 -0.000000 0.000000 -0.194700 19.126700 22.752600 -24.966600 -36.169900 -8.270200 -7.661700 11.572600 28.752400 0.000000 0.000000 0.000000 7.125000 0.000000 -0.000000 25.279200 57.103300 -7.835700
-1.126175 18.102319 5.786224 -4.880684 -1.726108 -1.386063 0.000000 0.000000 0.000000 -11.508760 -1.809256 21.905945 1.086410 -6.624529 -18.607619 -1.092072 18.660287 -11.857462 0.113684 -2.173800 -5.986202 0.000000 0.000000 0.000000 24.156162 10.790453 16.035659 0.000000 0.000000 0.000000 -2.194230 -10.693037 -33.463198 -0.147868 -2.478059 6.828828 2.640181 1.264545 2.171094 0.772420 1.778218 -0.718540 -0.753003 0.860815 -1.898540 -0.487773 -2.492228 -12.899450 1.351040 -3.589601 17.543359 0.154963 -1.619854 7.559468 0.000000 0.000000 0.000000 -3.039695 10.255793 -18.710556 20.013629 -30.658810 5.538276 4.302549 8.360414 26.864883 0.000000 0.000000 0.000000 -7.125000 0.000000 0.000000 -15.334529 3.853242 -14.819958 0.000000 0.000000 0.000000 -0.193096 19.094144 22.821899 -24.967432 -36.170698 -8.270677 -7.682731 11.589624 28.641819 0.000000 0.000000 0.000000 7.125000 0.000000 0.000000 25.176893 57.008475 -7.742357
-1.125838 18.102651 5.784948 -4.845713 -1.721952 -1.393179 0.000000 0.000000 0.000000 -11.552126 -1.815591 21.889382 1.083105 -6.614641 -18.578512 -1.089030 18.639238 -11.860452 0.111071 -2.148357 -5.915952 0.000000 0.000000 0.000000 24.117875 10.786965 16.038063 0.000000 0.000000 0.000000 -2.193771 -10.716071 -33.475974 -0.147768 -2.477520 6.827274 2.671027 1.283055 2.314983 0.714129 1.809979 -0.812711 -0.836270 0.872882 -2.072271 -0.524120 -2.448065 -12.737550 1.509673 -3.551723 17.508013 0.219016 -1.590659 7.522608 0.000000 0.000000 0.000000 -2.860827 10.378948 -19.103550 19.936920 -30.566226 5.499227 4.403297 8.022279 26.824912 0.000000 0.000000 0.000000 -7.125000 0.000000 0.000000 -15.275358 3.882864 -14.749579 0.000000 0.000000 0.000000 -0.236440 19.177265 23.110995 -24.856909 -36.057308 -8.205604 -7.838666 11.391555 28.548907 0.000000 0.000000 0.000000 7.125000 0.000000 0.000000 24.954278 56.957290 -7.636215
-1.126100 18.102962 5.783824 -4.835504 -1.719898 -1.398583 0.000000 0.000000 0.000000 -11.575110 -1.858333 21.890873 1.079167 -6.603020 -18.544394 -1.091528 18.668800 -11.919067 0.117417 -2.208924 -6.083415 0.000000 0.000000 0.000000 24.106928 10.784084 16.040727 0.000000 0.000000 0.000000 -2.197243 -10.711060 -33.492277 -0.149444 -2.491220 6.865278 2.758886 1.317312 2.556100 0.633944 1.869224 -0.986167 -0.978919 0.895151 -2.378899 -0.505033 -2.437999 -12.531064 1.611335 -3.562566 17.543480 0.250419 -1.586283 7.499469 0.000000 0.000000 0.000000 -2.553447 10.497599 -19.671296 19.584824 -30.134659 5.323356 4.704879 7.428594 26.955566 0.000000 0.000000 0.000000 -7.125000 0.000000 0.000000 -15.100409 3.729848 -14.610910 0.000000 0.000000 0.000000 -0.297422 19.335476 23.504499 -24.624799 -35.817990 -8.069347 -7.961521 10.925984 28.847231 0.000000 0.000000 0.000000 7.125000 0.000000 0.000000 25.056024 57.250087 -7.854957
-1.125897 18.102825 5.783297 -4.802615 -1.700990 -1.413831 0.000000 0.000000 0.000000 -11.609119 -1.828293 21.875005 1.076418 -6.594879 -18.520613 -1.092297 18.666668 -11.880154 0.128461 -2.310701 -6.365203 0.000000 0.000000 0.000000 24.068716 10.762991 16.047739 0.000000 0.000000 0.000000 -2.194386 -10.724830 -33.485343 -0.145140 -2.455517 6.766321 2.775050 1.329827 2.646046 0.572284 1.890067 -1.061408 -1.055797 0.902397 -2.503588 -0.350765 -2.500685 -12.584908 1.435878 -3.651333 17.745542 0.156777 -1.632646 7.569812 0.000000 0.000000 0.000000 -2.458674 9.474017 -19.060167 17.975592 -28.103076 4.549825 5.438807 7.613454 28.098957 0.000000 0.000000 0.000000 -7.125000 0.000000 0.000000 -14.689225 2.554183 -14.507492 0.000000 0.000000 0.000000 -0.265757 19.410517 23.640810 -24.527161 -35.716747 -8.012228 -7.844181 10.727280 29.437556 0.000000 0.000000 0.000000 7.125000 0.000000 0.000000 25.620897 57.753773 -8.367293
-1.125141 18.103090 5.782034 -4.755591 -1.677888 -1.411706 0.000000 0.000000 0.000000 -11.661752 -1.823182 21.847140 1.074715 -6.589812 -18.505667 -1.091573 18.655590 -11.851465 0.129051 -2.315697 -6.379011 0.000000 0.000000 0.000000 24.008058 10.748504 16.033173 0.000000 0.000000 0.000000 -2.192081 -10.726581 -33.473334 -0.142724 -2.434945 6.709318 2.738432 1.326552 2.630966 0.543697 1.883266 -1.069898 -1.064046 0.899326 -2.504182 -0.266343 -2.525834 -12.634419 1.322494 -3.682894 17.819419 0.101418 -1.651747 7.599236 0.000000 0.000000 0.000000 -1.824144 8.084178 -20.391964 16.082596 -25.632493 3.681635 6.688338 5.668811 28.963430 0.000000 0.000000 0.000000 -7.125000 0.000000 0.000000 -13.985784 1.591796 -14.019759 0.000000 0.000000 0.000000 -0.242034 19.395276 23.725001 -24.600003 -35.792333 -8.054812 -8.123043 10.798306 28.537436 0.000000 0.000000 0.000000 7.125000 0.000000 0.000000 24.663458 57.005866 -7.569040
-1.124952 18.103538 5.779725 -4.735455 -1.653985 -1.405314 0.000000 0.000000 0.000000 -11.691353 -1.879801 21.843310 1.074290 -6.588509 -18.501751 -1.092404 18.663537 -11.862039 0.123939 -2.269278 -6.250571 0.000000 0.000000 0.000000 23.977514 10.733374 16.013365 0.000000 0.000000 0.000000 -2.196706 -10.698012 -33.480464 -0.144479 -2.449371 6.749346 2.708190 1.315350 2.637691 0.548186 1.867585 -1.071954 -1.042045 0.891945 -2.511780 -0.349608 -2.506599 -12.672441 1.396270 -3.653931 17.826792 0.141639 -1.636123 7.611276 0.000000 0.000000 0.000000 -1.849257 8.057656 -20.335996 16.061325 -25.603754 3.672415 6.593776 5.730734 28.985587 0.000000 0.000000 0.000000 -7.125000 0.000000 0.000000 -14.040884 1.580400 -14.081461 0.000000 0.000000 0.000000 -0.308128 19.326890 23.867604 -24.643325 -35.837149 -8.080110 -8.001201 10.717125 28.499793 0.000000 0.000000 0.000000 7.125000 0.000000 0.000000 24.757185 56.946625 -7.564302
-1.125244 18.103600 5.777589 -4.748348 -1.626009 -1.407155 0.000000 0.000000 0.000000 -11.677289 -1.916088 21.850678 1.075399 -6.591854 -18.511572 -1.094022 18.674068 -11.858224 0.121444 -2.246655 -6.187921 0.000000 0.000000 0.000000 23.985382 10.708386 16.001027 0.000000 0.000000 0.000000 -2.207696 -10.637391 -33.502438 -0.156505 -2.548238 7.023492 2.703664 1.311410 2.644879 0.562929 1.862620 -1.066257 -1.024292 0.889755 -2.510814 -0.450480 -2.497501 -12.777769 1.483439 -3.639024 17.888063 0.186458 -1.626101 7.653744 0.000000 0.000000 0.000000 -1.879979 8.044319 -20.285340 16.072366 -25.618662 3.677206 6.550890 5.766092 28.974754 0.000000 0.000000 0.000000 -7.125000 0.000000 0.000000 -14.065217 1.595458 -14.103583 0.000000 0.000000 0.000000 -0.356892 19.251546 23.928312 -24.629365 -35.822710 -8.071972 -7.972554 10.765949 28.561014 0.000000 0.000000 0.000000 7.125000 0.000000 0.000000 24.830118 56.995832 -7.618565
